<svg xmlns="http://www.w3.org/2000/svg" viewBox="0 0 420 90" fill="none">
  <!-- Leaf -->
  <path d="M45 5C45 5 10 30 10 55C10 72 22 85 40 85C40 85 25 70 25 50C25 32 45 5 45 5Z" fill="#4CAF50"/>
  <path d="M45 5C45 5 80 30 80 55C80 72 68 85 50 85C50 85 65 70 65 50C65 32 45 5 45 5Z" fill="#66BB6A"/>
  <!-- Leaf vein -->
  <path d="M45 18V75" stroke="#388E3C" stroke-width="1.5" opacity="0.5"/>
  <path d="M45 35L33 48" stroke="#388E3C" stroke-width="1" opacity="0.4"/>
  <path d="M45 35L57 48" stroke="#388E3C" stroke-width="1" opacity="0.4"/>
  <path d="M45 50L36 60" stroke="#388E3C" stroke-width="1" opacity="0.4"/>
  <path d="M45 50L54 60" stroke="#388E3C" stroke-width="1" opacity="0.4"/>
  <!-- Water droplet -->
  <path d="M38 52C38 52 30 64 30 72C30 78 34 82 38 82C42 82 46 78 46 72C46 64 38 52 38 52Z" fill="#2196F3"/>
  <ellipse cx="36" cy="71" rx="2.5" ry="3" fill="#64B5F6" opacity="0.6"/>
  <!-- "Freshwater" text -->
  <text x="95" y="52" font-family="Arial, Helvetica, sans-serif" font-weight="800" font-size="42" fill="#2979FF" letter-spacing="-0.5">Freshwater</text>
  <!-- "LANDSCAPING" text -->
  <text x="97" y="78" font-family="Arial, Helvetica, sans-serif" font-weight="800" font-size="26" fill="#43A047" letter-spacing="3.5">LANDSCAPING</text>
</svg>